<?xml version="1.0" encoding="UTF-8" standalone="no"?>
<!-- Created with Inkscape (http://www.inkscape.org/) -->

<svg
   xmlns:dc="http://purl.org/dc/elements/1.1/"
   xmlns:cc="http://creativecommons.org/ns#"
   xmlns:rdf="http://www.w3.org/1999/02/22-rdf-syntax-ns#"
   xmlns:svg="http://www.w3.org/2000/svg"
   xmlns="http://www.w3.org/2000/svg"
   xmlns:xlink="http://www.w3.org/1999/xlink"
   xmlns:sodipodi="http://sodipodi.sourceforge.net/DTD/sodipodi-0.dtd"
   xmlns:inkscape="http://www.inkscape.org/namespaces/inkscape"
   width="512"
   height="512"
   viewBox="0 0 511.99999 511.99999"
   id="svg4304"
   version="1.1"
   inkscape:version="0.91 r"
   sodipodi:docname="favicon.svg">
  <defs
     id="defs4306">
    <linearGradient
       id="linearGradient4935"
       inkscape:collect="always">
      <stop
         id="stop4953"
         offset="0"
         style="stop-color:#151515;stop-opacity:1;" />
      <stop
         id="stop4955"
         offset="1"
         style="stop-color:#151515;stop-opacity:0;" />
    </linearGradient>
    <linearGradient
       inkscape:collect="always"
       id="linearGradient4957">
      <stop
         style="stop-color:#151515;stop-opacity:1;"
         offset="0"
         id="stop4937" />
      <stop
         style="stop-color:#151515;stop-opacity:0;"
         offset="1"
         id="stop4939" />
    </linearGradient>
    <linearGradient
       inkscape:collect="always"
       xlink:href="#linearGradient4935"
       id="linearGradient4941"
       x1="176.09687"
       y1="324.97591"
       x2="182.16067"
       y2="324.97591"
       gradientUnits="userSpaceOnUse" />
    <linearGradient
       inkscape:collect="always"
       xlink:href="#linearGradient4957"
       id="linearGradient4949"
       x1="261.62949"
       y1="237.23849"
       x2="430.32498"
       y2="431.18777"
       gradientUnits="userSpaceOnUse" />
  </defs>
  <sodipodi:namedview
     id="base"
     pagecolor="#ffffff"
     bordercolor="#666666"
     borderopacity="1.0"
     inkscape:pageopacity="0.0"
     inkscape:pageshadow="2"
     inkscape:zoom="0.98994949"
     inkscape:cx="195.67294"
     inkscape:cy="272.64459"
     inkscape:document-units="px"
     inkscape:current-layer="layer3"
     showgrid="false"
     units="px"
     inkscape:window-width="1366"
     inkscape:window-height="744"
     inkscape:window-x="0"
     inkscape:window-y="24"
     inkscape:window-maximized="1"
     showguides="false" />
  <metadata
     id="metadata4309">
    <rdf:RDF>
      <cc:Work
         rdf:about="">
        <dc:format>image/svg+xml</dc:format>
        <dc:type
           rdf:resource="http://purl.org/dc/dcmitype/StillImage" />
        <dc:title></dc:title>
      </cc:Work>
    </rdf:RDF>
  </metadata>
  <g
     inkscape:groupmode="layer"
     id="layer2"
     inkscape:label="circle"
     sodipodi:insensitive="true">
    <circle
       style="fill:#000000;fill-opacity:1;stroke:#424242;stroke-opacity:1"
       id="path4871"
       cx="256"
       cy="256"
       r="256" />
    <path
       style="fill:#212121;fill-opacity:1;stroke:none;stroke-width:1.01015258;stroke-opacity:1"
       d="M 223.15867,509.07857 C 166.05695,500.99977 115.0515,475.7627 75.378309,435.95808 55.670495,416.18498 39.645636,393.7254 27.395842,368.70844 18.464377,350.46829 13.717138,337.8188 9.0855792,319.91896 -6.2880673,260.50358 0.22363403,197.52389 27.384151,142.93935 40.247792,117.08726 55.207668,96.349617 75.864456,75.735086 116.55217,35.130606 166.24616,10.688257 223.90997,2.9178158 239.036,0.87951985 270.23532,0.63192065 285.0242,2.4328106 353.2809,10.744656 413.66398,44.48524 456.29909,98.137023 c 26.72569,33.631477 44.09147,73.009137 51.58576,116.973047 2.66947,15.65996 3.66247,48.87787 1.96727,65.80896 -4.71853,47.12699 -21.84478,90.76996 -50.86586,129.62185 -9.30709,12.45984 -35.82712,38.97987 -48.28696,48.28696 -33.85504,25.28859 -71.09973,41.49999 -112.16773,48.82297 -16.34143,2.9139 -59.13871,3.72458 -75.3729,1.42776 z m 56.30969,-153.5857 c 41.65569,-37.82816 72.73098,-68.64061 72.73098,-72.11581 0,-0.51248 -2.29614,-3.69086 -5.10252,-7.06308 l -5.10252,-6.13129 8.38551,-9.13256 8.38552,-9.13256 9.90163,10.2228 c 5.44589,5.62254 10.78538,11.67217 11.86551,13.44364 5.12285,8.40166 0.75456,15.22188 -26.14855,40.82573 -32.95061,31.35929 -48.99509,47.85301 -51.05903,52.48869 -2.23086,5.01057 -1.65676,8.46455 2.01765,12.13896 6.24169,6.24169 15.57599,0.10589 56.4057,-37.07769 35.68725,-32.50034 59.14147,-56.63596 59.14147,-60.85965 0,-2.69159 -11.09639,-15.649 -30.49662,-35.6113 l -15.84942,-16.30862 2.60961,-6.99729 c 3.5046,-9.39711 4.38138,-26.99104 1.83371,-36.79678 -4.36904,-16.81606 -16.40839,-31.59347 -31.83841,-39.0793 -4.72246,-2.29109 -11.08643,-4.76687 -14.14214,-5.50173 -11.32117,-2.72265 -32.40386,-0.84944 -41.41625,3.67985 -2.37489,1.19354 -3.1438,0.77213 -12.90311,-7.07177 -12.06883,-9.70013 -20.12529,-13.69222 -29.08355,-14.4113 -9.09829,-0.73033 -13.57344,0.28695 -13.56507,3.08356 0.0106,3.55536 3.11076,7.41603 17.60592,21.92504 l 13.62404,13.63706 -7.67303,6.80574 -7.67303,6.80574 -26.6831,-26.25117 -26.68311,-26.25118 -53.99316,0 -53.993158,0 0.01386,56.316 0.01386,56.31601 29.028028,28.33016 29.02802,28.33017 -0.32896,3.99471 c -0.62764,7.62161 0.79038,12.34649 6.07808,20.25226 9.6023,14.35663 27.56254,26.16887 39.78919,26.16887 l 6.14234,0 22.08988,21.46957 22.08989,21.46957 3.0825,-2.88351 c 1.69537,-1.58593 16.0377,-14.64832 31.87184,-29.02754 z"
       id="path4908"
       inkscape:connector-curvature="0" />
    <path
       style="fill:#212121;fill-opacity:1;stroke:none;stroke-opacity:1"
       d="m 353.6838,209.73773 c -7.87655,-7.60826 -10.55032,-10.90468 -12.00994,-14.80674 -2.4899,-6.65636 -10.19392,-14.22151 -16.08789,-15.79791 -3.36137,-0.89902 -6.84757,-3.46995 -14.89882,-10.98723 l -10.51066,-9.81357 4.04061,-1.16612 c 6.8293,-1.97094 17.16478,-2.46782 23.93736,-1.1508 24.26798,4.71925 39.87085,25.53313 37.83598,50.47235 -1.19326,14.62451 -0.67324,14.48718 -12.30664,3.25002 z"
       id="path4910"
       inkscape:connector-curvature="0" />
    <path
       style="fill:#212121;fill-opacity:1;stroke:none;stroke-opacity:1"
       d="m 269.59409,195.19098 c -4.01408,-4.04104 -7.29833,-7.62188 -7.29833,-7.9574 0,-0.33553 3.43052,-3.68035 7.62338,-7.43293 l 7.62338,-6.82289 8.35619,8.15627 8.35619,8.15628 -8.33149,6.62402 c -4.58232,3.64321 -8.48888,6.62402 -8.68124,6.62402 -0.19237,0 -3.634,-3.30632 -7.64808,-7.34737 z"
       id="path4912"
       inkscape:connector-curvature="0" />
    <path
       style="fill:#212121;fill-opacity:1;stroke:none;stroke-opacity:1"
       d="m 296.74482,222.34062 -9.45269,-9.49215 8.43553,-6.67029 c 4.63954,-3.66866 8.67494,-6.667 8.96756,-6.66298 0.29261,0.004 4.32716,3.52692 8.96566,7.82868 l 8.43364,7.82137 -7.33149,8.33376 c -4.03232,4.58357 -7.60915,8.33376 -7.94851,8.33376 -0.33936,0 -4.87073,-4.27147 -10.0697,-9.49215 z"
       id="path4914"
       inkscape:connector-curvature="0" />
    <path
       style="fill:#212121;fill-opacity:1;stroke:none;stroke-opacity:1"
       d="m 325.10012,252.00751 -8.4114,-9.04152 7.86811,-8.59705 7.86811,-8.59704 4.07882,3.85539 c 2.24336,2.12047 6.3203,5.93852 9.05988,8.48456 4.81524,4.47505 4.92861,4.7082 3.40566,7.00372 -2.18088,3.28719 -13.97112,16.02042 -14.78966,15.97254 -0.36746,-0.0215 -4.45325,-4.10777 -9.07952,-9.0806 z"
       id="path4916"
       inkscape:connector-curvature="0" />
    <path
       style="fill:#212121;fill-opacity:1;stroke:none;stroke-opacity:1"
       d=""
       id="path4918"
       inkscape:connector-curvature="0" />
    <path
       style="fill:#212121;fill-opacity:1;stroke:none;stroke-opacity:1"
       d="m 135.01654,202.46365 c -5.55273,-2.50492 -13.57349,-10.12596 -16.38721,-15.57055 -5.65074,-10.93425 0.34289,-24.8244 13.14182,-30.45601 5.4622,-2.4034 15.80179,-2.24208 21.42814,0.33431 6.0308,2.76161 12.54864,8.55138 15.72138,13.96525 2.27728,3.88588 2.45137,4.84007 1.50497,8.24895 -0.5886,2.12012 -3.68255,7.47122 -6.87543,11.89133 -9.09269,12.58758 -18.15635,16.26808 -28.53367,11.58672 z"
       id="path4920"
       inkscape:connector-curvature="0" />
  </g>
  <g
     inkscape:groupmode="layer"
     id="layer3"
     inkscape:label="sombra">
    <path
       style="fill:url(#linearGradient4949);fill-rule:evenodd;stroke:none;stroke-width:1px;stroke-linecap:butt;stroke-linejoin:miter;stroke-opacity:1;fill-opacity:1"
       d="M 360.62446,158.44661 178.797,340.27407 352.54324,514.02031 457.12769,485.99699 525.04943,368.35308 Z"
       id="path4925"
       inkscape:connector-curvature="0" />
    <path
       style="fill:#212121;fill-opacity:1;stroke:#151515;stroke-width:1.01015258;stroke-opacity:1"
       d="M 167.02344 312.6582 C 166.99745 312.6692 166.98438 312.69271 166.98438 312.73047 C 166.98438 314.47293 172.66979 321.16119 176.82422 324.30664 C 180.17479 326.84347 182.13672 327.82427 182.13672 326.96094 C 182.13672 326.80814 178.72743 323.29727 174.56055 319.1582 C 170.65411 315.27783 167.41325 312.49328 167.02344 312.6582 z "
       id="path4927" />
    <path
       style="fill:#212121;fill-opacity:1;stroke:#151515;stroke-width:1.01015258;stroke-opacity:1"
       d="m 178.79345,325.7883 c -1.00551,-0.76237 -1.40719,-1.64633 -0.89261,-1.96435 0.51457,-0.31803 1.74865,0.32018 2.74239,1.41825 2.05963,2.27587 0.88793,2.62179 -1.84978,0.5461 z"
       id="path4931"
       inkscape:connector-curvature="0" />
    <path
       style="fill:#212121;fill-opacity:1;stroke:url(#linearGradient4941);stroke-width:1.01015258;stroke-opacity:1"
       d="m 178.21141,325.34046 c -1.33048,-1.02304 -1.96194,-2.13038 -1.40952,-2.47179 0.5504,-0.34016 2.05518,0.50393 3.34395,1.87577 2.73602,2.91235 1.55232,3.27706 -1.93443,0.59602 z"
       id="path4933"
       inkscape:connector-curvature="0" />
  </g>
  <g
     inkscape:label="Layer 1"
     inkscape:groupmode="layer"
     id="layer1"
     transform="translate(0,-540.36219)"
     sodipodi:insensitive="true">
    <path
       style="fill:#ffeb3b;fill-opacity:1;stroke:none"
       d="M 167.72327,852.29742 91,777.41766 l 0.0306,-55.93523 0.0306,-55.93524 53.62533,0 53.6253,0 76.61889,76.09148 c 42.14032,41.85028 76.61897,78.76721 76.61897,82.03762 0,3.27042 -24.09541,27.89598 -53.5449,54.72354 l -53.5448,48.77736 -76.72327,-74.87977 z m -4.64549,-119.18336 c 11.22294,-15.88029 11.21498,-18.66739 -0.0857,-29.86693 -24.48103,-24.2624 -63.24752,5.8017 -40.12844,31.12013 13.74789,15.05554 29.02396,14.57945 40.21354,-1.2532 z"
       id="path4232-3"
       inkscape:connector-curvature="0" />
    <path
       style="fill:#f9a825;fill-opacity:1;stroke:none"
       d="m 304.62574,920.12281 c -6.54838,-7.81966 -1.45533,-14.71118 37.5827,-50.85382 39.55394,-36.62031 44.39076,-43.22852 38.9778,-53.25262 -3.39894,-6.29435 -39.46333,-42.66961 -80.14281,-80.83385 -73.1627,-68.63928 -73.74863,-69.39094 -54.18247,-69.51248 17.67979,-0.10983 27.9761,7.92021 96.95954,75.61802 42.44869,41.65748 77.1795,78.57441 77.1795,82.03766 0,3.46323 -24.47982,28.69458 -54.39982,56.06966 -47.85858,43.78792 -55.31065,48.68523 -61.97444,40.72743 z"
       id="path4234-9"
       inkscape:connector-curvature="0" />
    <path
       style="fill:#fffde7;fill-opacity:1;stroke:none"
       d="m 177.3024,879.15938 c -6.27623,-3.14281 -15.62957,-11.25173 -20.78552,-18.01979 -17.76944,-23.3262 -9.76233,-38.30369 56.07836,-104.89528 32.52854,-32.89954 66.42191,-63.18295 75.31829,-67.29647 56.36008,-26.05965 111.30385,25.87791 86.44873,81.71876 -9.51402,21.37485 -110.50193,117.71408 -116.87984,111.49959 -3.46727,-3.37855 8.2519,-16.62542 38.68377,-43.72676 57.10171,-50.85233 70.57913,-69.1021 70.57913,-95.57046 0,-38.44919 -38.51429,-59.51561 -75.009,-41.02815 -7.05103,3.57187 -38.99082,32.52768 -70.97707,64.34623 -49.0218,48.76461 -58.15721,60.09733 -58.15721,72.14667 0,17.71764 14.64538,32.79847 31.85167,32.79847 10.17509,0 26.07531,-12.87564 76.12776,-61.64624 46.52417,-45.33266 62.45953,-63.69526 60.21724,-69.38908 -6.29833,-15.99272 -23.06324,-7.87446 -62.31944,30.17772 -21.51615,20.8563 -40.48721,36.5887 -42.15782,34.96087 -8.99758,-8.76709 72.2761,-86.75925 90.40958,-86.75925 15.01169,0 26.27668,11.57358 26.27668,26.99632 0,9.80643 -12.88212,24.94674 -60.53083,71.14155 -52.06075,50.47233 -76.11344,68.62971 -90.51177,68.32773 -1.78837,-0.0374 -8.38672,-2.63959 -14.66271,-5.78243 z"
       id="path4255-1"
       inkscape:connector-curvature="0" />
  </g>
</svg>
